<svg xmlns="http://www.w3.org/2000/svg" viewBox="0 0 256 256" role="img" aria-labelledby="title desc"><title id="title">Burn Buds soil tile</title><desc id="desc">Seamless dark rich soil texture tile for the Burn Buds garden battlefield.</desc><defs><linearGradient id="soil" x1="0" y1="0" x2="1" y2="1"><stop offset="0" stop-color="#5a341f"/><stop offset=".45" stop-color="#3c2417"/><stop offset="1" stop-color="#26170f"/></linearGradient><filter id="grain" x="-20%" y="-20%" width="140%" height="140%"><feTurbulence type="fractalNoise" baseFrequency=".6" numOctaves="3" seed="11" result="noise"/><feColorMatrix in="noise" values=".7 0 0 0 0 .35 0 0 0 0 .15 0 0 0 0 0 0 0 .28 0"/><feBlend in="SourceGraphic" mode="multiply"/></filter><radialGradient id="speck" cx="50%" cy="50%" r="50%"><stop offset="0" stop-color="#c69a62"/><stop offset="1" stop-color="#6e4d2d"/></radialGradient></defs><rect width="256" height="256" rx="18" fill="url(#soil)" filter="url(#grain)"/><g fill="url(#speck)" opacity=".75"><circle cx="38" cy="48" r="7"/><circle cx="92" cy="29" r="4"/><circle cx="202" cy="54" r="6"/><circle cx="226" cy="118" r="5"/><circle cx="62" cy="178" r="5"/><circle cx="158" cy="202" r="7"/><circle cx="116" cy="124" r="3"/><circle cx="184" cy="142" r="4"/></g><g fill="#7da344" opacity=".55"><path d="M70 94c18-18 28-5 21 7-9 15-27 10-21-7Z"/><path d="M170 72c12-16 24-8 19 4-5 12-20 13-19-4Z"/></g></svg>