<svg xmlns="http://www.w3.org/2000/svg" viewBox="0 0 256 256" role="img" aria-labelledby="title desc"><title id="title">Burn Buds scorched soil tile</title><desc id="desc">Burned cracked soil texture tile with ember glow for destroyed battlefield cells.</desc><defs><radialGradient id="burn" cx="50%" cy="48%" r="72%"><stop offset="0" stop-color="#3b1b12"/><stop offset=".58" stop-color="#21110d"/><stop offset="1" stop-color="#100a08"/></radialGradient><filter id="grain"><feTurbulence type="fractalNoise" baseFrequency=".7" numOctaves="3" seed="23"/><feColorMatrix values=".4 0 0 0 0 .18 0 0 0 0 .08 0 0 0 0 0 0 0 .35 0"/><feBlend in="SourceGraphic" mode="multiply"/></filter><filter id="emberGlow" x="-100%" y="-100%" width="300%" height="300%"><feGaussianBlur stdDeviation="3" result="b"/><feMerge><feMergeNode in="b"/><feMergeNode in="SourceGraphic"/></feMerge></filter></defs><rect width="256" height="256" rx="18" fill="url(#burn)" filter="url(#grain)"/><g fill="none" stroke="#080504" stroke-width="6" stroke-linecap="round"><path d="M127 18l-8 63 20 29-15 38 5 90"/><path d="M119 81L67 57M138 109l58-36M124 148l-55 34M129 186l62 31"/><path d="M92 70l-18 28M166 92l26 18M91 167l-25-8M164 201l22-20" stroke-width="4"/></g><g fill="#ff8a2d" filter="url(#emberGlow)"><circle cx="130" cy="117" r="5"/><circle cx="102" cy="158" r="3"/><circle cx="169" cy="99" r="3"/><circle cx="151" cy="196" r="4"/></g></svg>