<svg xmlns="http://www.w3.org/2000/svg" viewBox="0 0 720 1000" role="img" aria-label="Citadel Tailwind HIT card artwork"><defs><linearGradient id="bg" x1="0" y1="1" x2="1" y2="0"><stop offset="0" stop-color="#14532d"/><stop offset="0.48" stop-color="#0ea5e9"/><stop offset="1" stop-color="#facc15"/></linearGradient></defs><rect width="720" height="1000" fill="url(#bg)"/><rect x="32" y="32" width="656" height="936" rx="42" fill="#f8fafc" stroke="#facc15" stroke-width="10"/><rect x="58" y="58" width="604" height="884" rx="32" fill="#102027" stroke="#38bdf8" stroke-width="6"/><rect x="86" y="80" width="548" height="86" rx="26" fill="#facc15" stroke="#fff" stroke-width="4"/><text x="360" y="132" text-anchor="middle" font-family="Arial, sans-serif" font-size="38" font-weight="900" fill="#0f172a">HIGH LAND</text><text x="360" y="220" text-anchor="middle" font-family="Arial, sans-serif" font-size="34" font-weight="900" fill="#facc15">HIT CARD</text><circle cx="360" cy="400" r="170" fill="#fff" opacity="0.96"/><path d="M210 430 C270 315 410 300 506 370 L470 326 L520 338 L516 390 L484 354 C405 308 300 330 250 430 Z" fill="#38bdf8"/><path d="M266 465 C318 400 405 394 462 425 L438 396 L480 405 L476 447 L452 421 C399 395 334 408 298 465 Z" fill="#facc15"/><text x="360" y="570" text-anchor="middle" font-family="Arial, sans-serif" font-size="34" font-weight="900" fill="#e0f2fe">CLOUD 9 BOOST</text><rect x="70" y="610" width="580" height="112" rx="24" fill="#fff" stroke="#facc15" stroke-width="5"/><text x="360" y="682" text-anchor="middle" font-family="Arial, sans-serif" font-size="45" font-weight="900" fill="#0f172a">Citadel Tailwind</text><rect x="70" y="760" width="580" height="132" rx="24" fill="#f8fafc"/><text x="360" y="820" text-anchor="middle" font-family="Arial, sans-serif" font-size="34" fill="#0f172a">Move forward 2 spaces,</text><text x="360" y="862" text-anchor="middle" font-family="Arial, sans-serif" font-size="34" fill="#0f172a">then roll again.</text><text x="360" y="932" text-anchor="middle" font-family="Arial, sans-serif" font-size="24" font-weight="900" fill="#facc15">CARD 040</text></svg>