<svg xmlns="http://www.w3.org/2000/svg" viewBox="0 0 64 64" role="img" aria-labelledby="title desc"><title>Root Zone and Irrigation</title><desc>Plant roots with irrigation droplet</desc><g fill="none" stroke="#E8F5EC" stroke-width="3.5" stroke-linecap="round" stroke-linejoin="round"><path d="M32 10v18"/><path d="M32 16c-8-8-16-4-16 4 8 1 13-1 16-4zM32 18c8-8 16-4 16 4-8 1-13-1-16-4z" fill="#73D98B" fill-opacity=".22"/><path d="M32 28c-8 5-12 11-13 26M32 28c8 5 12 11 13 26M32 34c-5 4-7 8-8 14M32 36c5 4 7 8 8 14M32 41v13"/><path d="M50 9c0 5-5 8-5 12a5 5 0 0 0 10 0c0-4-5-7-5-12z"/></g></svg>