<svg xmlns="http://www.w3.org/2000/svg" width="256" height="256" viewBox="0 0 256 256" fill="none">
  <g stroke="#163B2B" stroke-width="12" stroke-linecap="round" stroke-linejoin="round">

    <path d="M129 51c-26 0-47 18-51 42 24 3 43-7 51-24 8 17 27 27 51 24-4-24-25-42-51-42Z" fill="#4F9B59"/>
    <path d="M129 70v53"/>
    <path d="M129 123c0 31-12 54-31 74M129 123c0 31 12 54 31 74M129 143c-19 7-32 20-39 38M129 143c19 7 32 20 39 38M129 166v36"/>
    <path d="M56 86c-18 23-27 39-27 53a27 27 0 0 0 54 0c0-14-9-30-27-53Z" fill="#70AFC7"/>
    <path d="M198 86c-18 23-27 39-27 53a27 27 0 0 0 54 0c0-14-9-30-27-53Z" fill="#70AFC7"/>

  </g>
</svg>
